<?xml version="1.0" encoding="UTF-8"?><svg id="Layer_1" xmlns="http://www.w3.org/2000/svg" viewBox="0 0 500 500"><defs><style>.cls-1{fill:#009ff3;}.cls-2{fill:#fff;}</style></defs><rect width="500" height="500" rx="96.85" ry="96.85"/><g id="Layer_1-2"><path class="cls-1" d="M131.77,120.59c-41.8-2.62-67.02,44.31-68.7,80.71-1.25,27.32,15.5,53.28,11.35,79.73-.25,1.56-5.23,10.2-4.76,10.53h18.59c-1.04,1.29-1.34,4.8-2.8,5.3-3.41,1.17-15.82-1.06-18.2.39-.96.59-3.91,7.68-4.19,9.3h24.29c.26,0,1.87-.7,2.14-1.01,1.84-2.12,4.25-9.32,6.56-12.48,9.3-12.76,35.49-19.73,49.59-25.98,32.62-14.47,64.71-56.62,55.79-93.8-6.89-28.72-41.28-50.91-69.67-52.69ZM161.12,248.96c-20.15,16.33-48.3,18.18-67.84,35.89l-11.53-5.36c-.57-1.91.57-3.74.53-5.59-.46-20.38-6.51-33.04-10.03-51.8-5.91-31.46,6.45-73,35.77-89.22,17.02-9.41,41.58-2.94,57.38,6.57,47.09,28.33,32.33,79.85-4.28,109.51Z"/><path class="cls-1" d="M55.27,321.56h25.79l4.2-8.99c-.82-.82-20.5-.9-23.13-.64-4.25.42-5.19,6.23-6.86,9.63Z"/><path class="cls-1" d="M50.39,332.27c-.58.35-2.26-.16-3.51.39-2.17.94-3.77,4.55-2.21,6.71,1.36,1.9,16.55,8.9,19.81,10.47.62.3,1.08,1.17,1.61,1.39,6.15,2.57,9.32-6.05,3.59-8.97.55-.93,1.81-1.09,2.36-1.98,2.15-3.43,3.32-9.81,6.02-13.32h-24.89c-2.11,0-2.04,4.87-2.78,5.31h0Z"/><path class="cls-1" d="M220.88,130.57c-16.16,11.07-10.33,39.93,9.85,41.62,3.38.28,9.42-.13,12.27-2.11.95-.66.43-.59.13-1.28-1.18-2.77-10.51-4.64-13.92-6.48-17.44-9.45-9.57-33.85,11.43-30.03,4.65.85,8.04,4.67,12.57,5.72-5.92-11.78-21.71-14.71-32.34-7.44h.01Z"/><path class="cls-1" d="M186.73,247.57c-1.61,2.29-2.54,6.57,1.26,4.39,2.29-1.32,5.06-5.92,7.66-7.48,12.51-14.23,26.76-27.51,38.96-41.99.57-.67,1.45-.98,1.19-2.1l-9.6,7.49c-11.82,12.73-29.56,25.63-39.48,39.7h0Z"/><path class="cls-1" d="M173.74,340.15h13.2c7.72,0,16.03-6.48,18.91-13.48,3.3-8.01,3.52-31.93.41-40.03-7.14-18.6-32.98-13.21-48.71-14.25-.55-.05-1.37.43-1.51.89v104.97c0,.8,2.6.9,3.3.9h13.2c1.72,0,.31-4.6.28-5.67-.27-8.75-.98-22.97,0-31.24.07-.61.28-2.07.93-2.07h0ZM172.84,287.97c3.89.48,9.22-.65,12.9,0,1.95.35,4.31,3.4,4.94,5.25,1.41,4.13,1.19,22.25-.11,26.57-.8,2.68-4.43,5.97-7.23,5.97h-9.6c-.07,0-.9-.83-.9-.9v-36.89h0Z"/><path class="cls-1" d="M250.55,272.99c-5.18-.28-13.82-1.54-18.64-.62-.7.13-1.21.2-1.38,1.02l-18.11,105.75h16.49l.8-1c.54-2.8,1.84-19.47,3.07-20.33h18.67c1.6,2.36,2.6,21.33,4.46,21.33h15.6c.15,0,1.04-.8.67-1.24-6.42-34.3-12.26-68.73-18.03-103.16-.89-3.43-1.3-1.63-3.6-1.75h0ZM234.62,343.15l5.47-39.22c1.16-2.59.23-6.89,2.32-8.77l6.6,47.99h-14.4Z"/><path class="cls-1" d="M172.59,153.86c-15.87-13.99-42.79-24.76-62.74-13.76-33.06,18.24-44.15,81.46-15.27,107.66,43.42,39.4,127.77-50.03,78.01-93.9ZM159.96,164.84c2.51,0,4.55,2.04,4.55,4.55s-2.04,4.55-4.55,4.55-4.55-2.04-4.55-4.55,2.04-4.55,4.55-4.55ZM160.68,184.35c3.18,3.38-2.62,11.11-7.05,6.16-4.28-4.79,3.25-10.21,7.05-6.16ZM143.87,156.71c4.8-.76,7.34,6.47,2.73,8.75-6.59,3.26-8.7-7.8-2.73-8.75ZM142.24,174.69c2.48,0,4.5,2.02,4.5,4.5s-2.02,4.5-4.5,4.5-4.5-2.02-4.5-4.5,2.02-4.5,4.5-4.5ZM138.76,194.31c0,2.52-2.05,4.56-4.56,4.56s-4.56-2.05-4.56-4.56,2.05-4.56,4.56-4.56,4.56,2.05,4.56,4.56ZM129.22,149.61c2.56,0,4.62,2.07,4.62,4.62s-2.07,4.62-4.62,4.62-4.62-2.07-4.62-4.62,2.07-4.62,4.62-4.62ZM124.51,168.56c1.25-.89,5.17-.85,6.2.19,2.79,2.8.57,9.03-4.22,8.16-3.76-.68-4.73-6.41-1.99-8.35ZM122.97,187.53c0,2.49-2.02,4.5-4.5,4.5s-4.5-2.02-4.5-4.5,2.02-4.5,4.5-4.5,4.5,2.02,4.5,4.5ZM109.42,162.17c4.19-4.19,10.3,1.77,6.44,6.15-4.49,5.1-10.56-2.03-6.44-6.15ZM101.3,175.31c7.26-1.6,7.91,9.08,1.12,8.84-5.34-.19-5.19-7.94-1.12-8.84ZM92.43,195.55c0-2.5,2.03-4.53,4.53-4.53s4.53,2.03,4.53,4.53-2.03,4.53-4.53,4.53-4.53-2.03-4.53-4.53ZM103.43,222.04c-2.5,0-4.53-2.03-4.53-4.53s2.03-4.53,4.53-4.53,4.53,2.03,4.53,4.53-2.03,4.53-4.53,4.53ZM111.45,207.41c-8.4-.46-2.12-14.19,3.65-8.07,2.28,2.42.58,8.3-3.65,8.07ZM119.63,229.05c-8.83,2.02-6.72-12.25,1.41-8.03,2.59,1.34,1.97,7.25-1.41,8.03ZM121.87,209.71c0-2.51,2.03-4.54,4.54-4.54s4.54,2.03,4.54,4.54-2.03,4.54-4.54,4.54-4.54-2.03-4.54-4.54ZM132.79,236.61c-2.51,0-4.53-2.03-4.53-4.53s2.03-4.53,4.53-4.53,4.53,2.03,4.53,4.53-2.03,4.53-4.53,4.53ZM141.11,221.7c-2.51,0-4.55-2.03-4.55-4.55s2.03-4.55,4.55-4.55,4.55,2.03,4.55,4.55-2.03,4.55-4.55,4.55ZM144.86,202.21c0-2.52,2.04-4.56,4.56-4.56s4.56,2.04,4.56,4.56-2.04,4.56-4.56,4.56-4.56-2.04-4.56-4.56ZM158.23,227.77c-6.21,6.29-11.58-9.56-1.3-7.57,3.45.67,3.48,5.36,1.3,7.57ZM164.16,214.14c-2.54,0-4.59-2.06-4.59-4.59s2.06-4.59,4.59-4.59,4.59,2.06,4.59,4.59-2.06,4.59-4.59,4.59ZM171.57,198.26c-2.49,0-4.51-2.02-4.51-4.51s2.02-4.51,4.51-4.51,4.51,2.02,4.51,4.51-2.02,4.51-4.51,4.51Z"/><path class="cls-1" d="M236.69,137.39c-5.07-.16-10.47,2.69-11.06,8.11-1.27,11.68,9.02,12.78,17.6,15.99l5.48,5.31c6.26-6.09,9.92-14.52,7.44-23.32-7.96,1.54-11.91-5.84-19.46-6.08h0Z"/><rect class="cls-2" x="278.41" y="159.01" width="15.45" height="95.37"/><path class="cls-1" d="M285.87,272.34c-.7.08-1.83.15-2.07.93v104.97c0,.66,1.46.86,2.07.93,5.41.64,15.33.25,21.02-.04,20.07-1,30.22-7.2,31.53-28.46.89-14.49.97-35.97-.04-50.41-.74-10.69-4.53-20.91-15.18-25.01-7.81-3-28.92-3.91-37.33-2.92h0ZM301.2,287.97h11.7c.41,0,3.92,1.6,4.53,2.07,2.99,2.28,3.36,7.23,3.59,10.8.92,14.32,1,36.16,0,50.43-.31,4.47-.93,9.24-5.39,11.41-.74.37-3.98,1.46-4.54,1.46h-9.9v-76.18h0Z"/><path class="cls-1" d="M429.56,362.64v-90.27h-17.99v106.17h44.39v-14.4h-26.09c-1.43-.88-.31-1.28-.31-1.5Z"/><path class="cls-2" d="M321.29,254.38h14.7v-80.68c0-1.82,12.94-.59,15-.3v-14.4h-46.19v14.4c1.48-.21,2.93-.56,4.46-.6,1.57-.04,11.14-.48,11.14.9v79.78c0,.07.83.9.9.9Z"/><path class="cls-2" d="M363.28,159.01c-1.35,0-4.35,23.91-5.7,26.39h12.6l8.4-26.39h-15.3Z"/><path class="cls-2" d="M384.57,226.79v11.7c0,9.85,11.34,16.9,20.17,17.62,18.58,1.52,27.48-10.74,25.94-28.34-1.92-21.95-28.13-28.79-30.36-44.02-1.07-7.26.47-13.72,9.16-12.75,6.9.77,6.53,8.48,6.28,13.81h14.4v-8.7c0-22.09-36.02-26.18-43.36-6.17-4.35,11.88-.92,24.22,7.06,33.47,6.44,7.46,20.59,15.34,21.83,25.55.6,4.93-.07,11.88-5.89,13.17-10.29,2.27-12.2-7.3-11.44-15.34h-13.8,0Z"/><path class="cls-1" d="M352.78,379.14h45.59v-15h-28.19v-30.59h23.39v-15.6c-.65-.22-1.31.6-1.5.6h-20.99c-.07,0-.9-.83-.9-.9v-29.69h27.59v-15.6h-44.99v106.77Z"/></g></svg>