<?xml version="1.0" encoding="UTF-8"?>
<svg id="Layer_2" data-name="Layer 2" xmlns="http://www.w3.org/2000/svg" viewBox="0 0 686.73 556.64">
  <defs>
    <style>
      .cls-1 {
        fill: #009ff3;
      }
    </style>
  </defs>
  <g id="Layer_1-2" data-name="Layer 1">
    <g>
      <path class="cls-1" d="M146.25.18C76.56-4.19,34.51,74.06,31.72,134.73c-2.09,45.54,25.84,88.83,18.93,132.93-.41,2.6-8.72,17-7.94,17.56h31c-1.73,2.15-2.23,8.01-4.66,8.84-5.68,1.95-26.37-1.77-30.35.65-1.6.98-6.52,12.81-6.99,15.51h40.5c.43,0,3.11-1.17,3.56-1.69,3.06-3.54,7.09-15.53,10.94-20.81,15.5-21.28,59.17-32.89,82.68-43.32,54.38-24.12,107.88-94.4,93.02-156.38C250.93,40.14,193.59,3.14,146.25.18ZM195.18,214.19c-33.59,27.22-80.52,30.31-113.1,59.83l-19.22-8.94c-.95-3.18.95-6.23.88-9.32-.77-33.97-10.85-55.09-16.72-86.36-9.85-52.45,10.76-121.71,59.63-148.74,28.37-15.69,69.32-4.9,95.67,10.96,78.5,47.23,53.9,133.12-7.14,182.57Z"/>
      <path class="cls-1" d="M18.71,335.22h43l7-14.99c-1.37-1.36-34.18-1.5-38.56-1.07-7.08.7-8.65,10.38-11.44,16.06Z"/>
      <path class="cls-1" d="M10.57,353.08c-.96.58-3.76-.26-5.85.65-3.61,1.56-6.28,7.58-3.69,11.18,2.27,3.17,27.59,14.84,33.03,17.46,1.04.5,1.8,1.95,2.68,2.31,10.26,4.29,15.54-10.09,5.99-14.96.92-1.55,3.02-1.82,3.94-3.3,3.58-5.72,5.53-16.35,10.04-22.2H15.21c-3.51,0-3.4,8.12-4.64,8.86Z"/>
      <path class="cls-1" d="M167.74,511.69c3.24.86,6.46,5.15,7.61,5.37.49.09,8.89-3.03,9.33-3.37,2.65-2.02-3.8-7.01-5.65-8.3-17.75-12.42-40.19-1.4-43.07,19.58-3.97,28.99,30.09,41,49.55,23.55l1.2-22.31c-3.58,1.16-22.62-1.86-24.05-.5-1.99,1.88-.54,7.71-.96,10.51h13c-.15,11.19-15.6,10.88-21.53,4.02-10.16-11.77-1.33-32.77,14.56-28.55Z"/>
      <path class="cls-1" d="M294.8,16.81c-26.94,18.46-17.22,66.57,16.42,69.39,5.64.47,15.71-.22,20.46-3.51,1.58-1.1.71-.98.21-2.14-1.97-4.62-17.53-7.73-23.21-10.81-29.07-15.76-15.95-56.44,19.06-50.06,7.75,1.41,13.4,7.79,20.95,9.54-9.87-19.64-36.2-24.53-53.91-12.4Z"/>
      <path class="cls-1" d="M387.71,512.22v-11h-38v54h37.5c2.2,0,2.2-11,0-11h-24.5v-10h21v-12h-21v-10h25Z"/>
      <path class="cls-1" d="M216.61,555.11c.41-.35,1.9-8.74,2.99-10.3.56-.8,16.6-1.06,18.45-.43,3.17,1.09,4.22,10.27,4.76,10.74.86.74,10.68-.33,12.9.1l-20.16-53.83c-2.86.03-10.72-1.15-12.35.82l-19.48,53.01c2.22-.42,12.04.65,12.9-.1ZM228.62,519.64c.39-.76.38-3.2,2.08-1.42.22.23.78,4.78,1.3,6.21.61,1.68,3.71,7.84,3.69,8.29-.14,2.42-9.79,1.26-11.97,1.49-.57-.51,4.13-13.05,4.9-14.57Z"/>
      <path class="cls-1" d="M237.87,211.88c-2.69,3.82-4.23,10.96,2.1,7.32,3.82-2.2,8.43-9.87,12.77-12.47,20.86-23.72,44.62-45.86,64.96-70.01.95-1.12,2.41-1.63,1.99-3.5l-16.01,12.48c-19.7,21.23-49.29,42.73-65.82,66.18Z"/>
      <path class="cls-1" d="M216.21,366.22h22c12.87,0,26.72-10.81,31.53-22.47,5.51-13.36,5.87-53.24.69-66.74-11.91-31.01-54.98-22.02-81.2-23.76-.92-.08-2.28.72-2.52,1.48v175c0,1.34,4.34,1.5,5.5,1.5h22c2.86,0,.51-7.67.46-9.46-.45-14.58-1.63-38.3,0-52.09.12-1.01.46-3.45,1.55-3.45ZM214.71,279.22c6.48.8,15.37-1.09,21.5,0,3.25.58,7.18,5.67,8.24,8.76,2.35,6.88,1.99,37.1-.18,44.29-1.34,4.46-7.39,9.95-12.05,9.95h-16c-.11,0-1.5-1.39-1.5-1.5v-61.5Z"/>
      <path class="cls-1" d="M344.27,254.25c-8.64-.47-23.04-2.56-31.07-1.04-1.17.22-2.02.34-2.3,1.7l-30.19,176.31h27.5l1.34-1.66c.9-4.66,3.07-32.46,5.11-33.89h31.13c2.67,3.94,4.34,35.56,7.43,35.56h26c.25,0,1.73-1.34,1.12-2.07-10.7-57.19-20.44-114.58-30.06-171.99-1.48-5.72-2.16-2.71-6-2.91ZM317.71,371.22l9.12-65.38c1.94-4.32.39-11.49,3.87-14.62l11.01,80h-24Z"/>
      <path class="cls-1" d="M214.29,55.64c-26.46-23.33-71.34-41.28-104.6-22.94-55.12,30.41-73.6,135.81-25.45,179.49,72.39,65.69,213.01-83.41,130.05-156.55ZM193.24,73.94c4.19,0,7.59,3.4,7.59,7.59s-3.4,7.59-7.59,7.59-7.59-3.4-7.59-7.59,3.4-7.59,7.59-7.59ZM194.44,106.47c5.3,5.64-4.37,18.52-11.75,10.27-7.14-7.99,5.41-17.02,11.75-10.27ZM166.42,60.39c8-1.27,12.23,10.79,4.55,14.58-10.99,5.43-14.5-13.01-4.55-14.58ZM163.7,90.37c4.14,0,7.5,3.36,7.5,7.5s-3.36,7.5-7.5,7.5-7.5-3.36-7.5-7.5,3.36-7.5,7.5-7.5ZM157.89,123.08c0,4.2-3.41,7.61-7.61,7.61s-7.61-3.41-7.61-7.61,3.41-7.61,7.61-7.61,7.61,3.41,7.61,7.61ZM142,48.55c4.26,0,7.71,3.45,7.71,7.71s-3.45,7.71-7.71,7.71-7.71-3.45-7.71-7.71,3.45-7.71,7.71-7.71ZM134.14,80.15c2.09-1.48,8.62-1.42,10.34.31,4.65,4.67.95,15.05-7.03,13.61-6.27-1.13-7.89-10.68-3.31-13.92ZM131.58,111.77c0,4.15-3.36,7.51-7.51,7.51s-7.51-3.36-7.51-7.51,3.36-7.51,7.51-7.51,7.51,3.36,7.51,7.51ZM108.99,69.5c6.98-6.98,17.17,2.95,10.74,10.25-7.48,8.5-17.6-3.39-10.74-10.25ZM95.44,91.41c12.1-2.67,13.18,15.14,1.86,14.73-8.91-.32-8.65-13.23-1.86-14.73ZM80.66,125.14c0-4.17,3.38-7.55,7.55-7.55s7.55,3.38,7.55,7.55-3.38,7.55-7.55,7.55-7.55-3.38-7.55-7.55ZM99,169.31c-4.17,0-7.56-3.38-7.56-7.56s3.38-7.56,7.56-7.56,7.56,3.38,7.56,7.56-3.38,7.56-7.56,7.56ZM112.36,144.92c-14-.77-3.54-23.65,6.09-13.45,3.8,4.03.96,13.84-6.09,13.45ZM126,181c-14.72,3.37-11.21-20.43,2.35-13.38,4.31,2.24,3.29,12.08-2.35,13.38ZM129.74,148.75c0-4.18,3.39-7.57,7.57-7.57s7.57,3.39,7.57,7.57-3.39,7.57-7.57,7.57-7.57-3.39-7.57-7.57ZM147.94,193.6c-4.18,0-7.56-3.39-7.56-7.56s3.39-7.56,7.56-7.56,7.56,3.39,7.56,7.56-3.39,7.56-7.56,7.56ZM161.82,168.75c-4.19,0-7.58-3.39-7.58-7.58s3.39-7.58,7.58-7.58,7.58,3.39,7.58,7.58-3.39,7.58-7.58,7.58ZM168.06,136.25c0-4.2,3.4-7.6,7.6-7.6s7.6,3.4,7.6,7.6-3.4,7.6-7.6,7.6-7.6-3.4-7.6-7.6ZM190.36,178.86c-10.36,10.48-19.31-15.94-2.17-12.62,5.76,1.12,5.81,8.94,2.17,12.62ZM200.25,156.14c-4.23,0-7.66-3.43-7.66-7.66s3.43-7.66,7.66-7.66,7.66,3.43,7.66,7.66-3.43,7.66-7.66,7.66ZM212.6,129.67c-4.15,0-7.52-3.37-7.52-7.52s3.37-7.52,7.52-7.52,7.52,3.37,7.52,7.52-3.37,7.52-7.52,7.52Z"/>
      <path class="cls-1" d="M321.16,28.19c-8.46-.26-17.46,4.49-18.44,13.52-2.11,19.48,15.03,21.3,29.35,26.65l9.13,8.85c10.44-10.16,16.54-24.2,12.41-38.88-13.27,2.57-19.86-9.74-32.45-10.13Z"/>
      <path class="cls-1" d="M315.71,555.22c2.49-.43,12.27,1.21,12.75-1.46l.25-52.54c-3.27.56-10.42-1.05-12.99.5-.84.51-8.73,14.39-10.18,16.82-1.55,2.6-3.22,9.67-6.33,8.69-1.39-.44-11.41-22.9-13.66-25.86l-12.84-.16v54h12v-30c4.76,3.29,8.31,17.91,13.51,18.98,1.16.24,5.58.33,6.33-.14,1.14-.72,7.7-15.6,9.71-17.78,3.82-4.17,1.45,1.18,1.45,1.45v27.5Z"/>
      <rect class="cls-1" x="390.71" y="64.22" width="25.76" height="159"/>
      <path class="cls-1" d="M403.16,253.17c-1.17.14-3.05.25-3.45,1.55v175c0,1.1,2.44,1.43,3.45,1.55,9.02,1.06,25.55.41,35.04-.06,33.46-1.67,50.39-12.01,52.56-47.44,1.48-24.16,1.61-59.97-.06-84.04-1.23-17.83-7.55-34.86-25.31-41.69-13.02-5-48.21-6.52-62.23-4.87ZM428.71,279.22h19.5c.69,0,6.53,2.67,7.55,3.45,4.98,3.8,5.61,12.06,5.99,18.01,1.54,23.88,1.66,60.28,0,84.08-.52,7.46-1.55,15.4-8.98,19.02-1.24.61-6.64,2.43-7.57,2.43h-16.5v-127Z"/>
      <path class="cls-1" d="M642.71,403.72v-150.5h-30v177h74v-24h-43.49c-2.39-1.46-.51-2.14-.51-2.5Z"/>
      <path class="cls-1" d="M462.21,223.22h24.5V88.72c0-3.04,21.57-.98,25-.5v-24h-77v24c2.47-.35,4.89-.94,7.43-1,2.62-.07,18.57-.8,18.57,1.5v133c0,.11,1.39,1.5,1.5,1.5Z"/>
      <path class="cls-1" d="M532.21,64.22c-2.25,0-7.26,39.86-9.5,44h21l14-44h-25.5Z"/>
      <path class="cls-1" d="M567.71,177.22v19.5c0,16.43,18.91,28.17,33.63,29.37,30.98,2.53,45.81-17.91,43.24-47.24-3.2-36.59-46.89-48-50.61-73.39-1.78-12.11.78-22.88,15.27-21.26,11.51,1.29,10.89,14.14,10.47,23.02h24v-14.5c0-36.83-60.06-43.64-72.29-10.29-7.26,19.8-1.54,40.38,11.77,55.8,10.74,12.44,34.33,25.57,36.4,42.6,1,8.22-.11,19.81-9.82,21.96-17.16,3.79-20.34-12.17-19.07-25.57h-23Z"/>
      <path class="cls-1" d="M514.71,431.22h76v-25h-47v-51h39v-26c-1.08-.37-2.19,1-2.5,1h-35c-.11,0-1.5-1.39-1.5-1.5v-49.5h46v-26h-75v178Z"/>
      <path class="cls-1" d="M548.71,501.22v32c-8.62-9.62-15.31-20.98-23.43-31.07-3.48-2.09-9.5-.42-13.57-.93v54h12v-34c9.39,10.08,16.47,22.46,25.43,33.07,2.11,1.38,10.98,1.64,12.15-.06.6-.72-.58-1.26-.58-1.51v-51.5h-12Z"/>
      <rect class="cls-1" x="56.69" y="461.17" width="630.04" height="9.1"/>
      <path class="cls-1" d="M600.61,532.13c1.05-1.8.05-26.41,1.11-30.92h-12.01s1.01,29.5,1.01,29.5c-.77,4.08,9.61,1.9,9.9,1.41Z"/>
      <circle class="cls-1" cx="596.01" cy="548.79" r="7.47"/>
      <path class="cls-1" d="M492.63,528.34c0-15.59-12.64-28.23-28.23-28.23s-28.23,12.64-28.23,28.23,12.64,28.23,28.23,28.23,28.23-12.64,28.23-28.23ZM462.47,511.4c20.75-3.04,23.64,32.92,2.58,33.47-20.03.53-20.9-30.79-2.58-33.47Z"/>
    </g>
  </g>
</svg>