<svg width="240" height="39" viewBox="0 0 240 39" fill="none" xmlns="http://www.w3.org/2000/svg">
<g clip-path="url(#clip0_5_35)">
<path d="M17.1002 0.226824C20.6829 0.722165 25.3633 3.9141 26.6939 7.28427C28.0832 10.8072 28.0997 26.2299 27.3263 30.2158C26.7057 33.41 22.4131 39.0023 18.9009 39.0023H9.00163V30.7782C7.53707 30.5838 0.00268555 31.4009 0.00268555 29.8964V0.226824C5.32024 0.749941 11.959 -0.483782 17.1026 0.226824H17.1002ZM8.99928 19.6146C16.2892 20.8599 28.0315 17.374 24.1456 8.01571C23.5015 6.46256 19.3006 3.16646 17.6997 3.16646H2.99998V27.8409H8.99928V19.6169V19.6146ZM22.5964 25.2901C24.6205 23.3319 24.8462 20.5011 24.5923 17.8554L21.2 20.6955C16.1082 21.4825 17.4575 23.6027 17.4011 27.8386C17.7843 28.2599 22.0205 25.848 22.5941 25.2925L22.5964 25.2901ZM11.3995 21.964V36.6506H14.3991V21.964H11.3995ZM17.4058 36.6506C22.2532 35.2571 25.5632 31.9101 24.5946 26.6628C23.1747 27.577 22.2744 28.827 20.6429 29.5445C19.5921 30.0075 17.5422 30.0977 17.427 30.2135C17.1096 30.5236 17.5939 35.565 17.4058 36.6506Z" fill="black"/>
<path d="M183 10.8003C184.257 10.9207 186.126 10.4369 187.21 11.085C188.301 11.7377 191.552 19.3808 192.307 19.6169C193.426 19.9664 193.113 19.1794 193.336 18.8484C195.821 15.1912 196.609 9.4763 202.199 10.8003V25.7809C202.199 26.679 199.455 26.8179 198.6 26.6628V16.087L192.297 25.4846L187.191 16.0893L186.307 16.0847C185.459 16.1819 186.601 16.8323 186.601 16.9689V25.7809C186.601 26.679 183.858 26.8179 183.002 26.6628V10.8003H183Z" fill="black"/>
<path d="M164.24 10.3536C177.572 8.24489 179.838 27.871 164.673 26.6813C154.651 25.8966 154.541 11.8859 164.24 10.3536ZM171.803 18.6123C171.803 15.506 169.231 12.9877 166.057 12.9877C162.884 12.9877 160.312 15.506 160.312 18.6123C160.312 21.7186 162.884 24.237 166.057 24.237C169.231 24.237 171.803 21.7186 171.803 18.6123Z" fill="black"/>
<path d="M60.3009 10.8003C64.9062 11.7747 65.0096 20.7788 60.1716 21.8367C58.6788 22.163 53.058 21.7047 52.7971 21.9593C52.5784 22.1723 52.9616 25.7947 52.7994 26.6651C51.9437 26.8202 49.2003 26.6766 49.2003 25.7809V10.8003C52.4209 11.2586 57.3365 10.173 60.3009 10.8003ZM52.7971 19.6169C62.9926 20.9686 63.8694 11.9483 52.7971 13.7353V19.6169Z" fill="black"/>
<path d="M101.901 10.8998C102.634 11.3419 107.259 24.6675 107.997 26.6581C103.796 28.0793 104.379 23.1491 102.818 22.6283C102.122 22.3968 95.1659 22.3621 94.8674 22.619C93.9506 23.4083 94.8909 28.1163 90.603 26.6581C89.9871 26.1095 95.7019 11.953 96.2826 11.3697C97.0137 10.6336 101.186 10.4692 101.901 10.8998ZM101.997 20.1978C102.383 19.8391 99.9193 12.6219 98.4077 13.7399C98.135 13.9413 96.2614 19.8668 96.5999 20.1978H102H101.997Z" fill="black"/>
<path d="M239.396 16.0847C235.496 16.7721 235.31 13.0988 231.3 13.0964C223.608 13.0895 224.656 25.1142 232.339 24.2023C235.722 23.8018 235.493 19.9872 240 21.3807C236.33 30.5746 221.024 27.8687 222.634 17.0106C223.84 8.88604 238.244 7.32132 239.396 16.0847Z" fill="black"/>
<path d="M151.2 10.8003V13.7399L145.201 13.7376V26.6628H141.602V13.7376C141.602 13.3349 134.034 15.256 135.602 10.8003H151.202H151.2Z" fill="black"/>
<path d="M129.601 10.8072C126.648 16.1402 120.985 19.9618 122.405 26.6674H119.398C120.729 20.1053 115.138 16.0384 112.202 10.8072C117.43 9.63832 117.781 15.2144 120.903 17.8392C124.022 15.2144 124.375 9.63832 129.603 10.8072H129.601Z" fill="black"/>
<path d="M75.0006 10.8003V23.7255H83.9996V26.6628H71.3992V10.8003H75.0006Z" fill="black"/>
<path d="M211.2 10.8003L214.799 10.8072C215.098 11.0156 214.2 11.5572 214.2 11.6822V26.6628H211.2V10.8003Z" fill="black"/>
</g>
<defs>
<clipPath id="clip0_5_35">
<rect width="240" height="39" fill="white"/>
</clipPath>
</defs>
</svg>
